<svg width="64" height="64" viewBox="0 0 64 64" fill="none" xmlns="http://www.w3.org/2000/svg">
<path d="M54 33.9998C52.7597 34.0016 51.5504 34.3869 50.5377 35.1031C49.5251 35.8192 48.7587 36.831 48.3438 37.9998H43.4412L39.8975 27.3673C39.7624 26.9622 39.5011 26.611 39.1519 26.3651C38.8028 26.1191 38.3841 25.9914 37.9571 26.0007C37.5301 26.0099 37.1173 26.1555 36.7791 26.4163C36.4409 26.6771 36.195 27.0392 36.0775 27.4498L30.5138 46.9198L23.9725 7.66982C23.8966 7.21664 23.6671 6.80341 23.3224 6.4996C22.9777 6.19579 22.5389 6.01993 22.0798 6.00159C21.6206 5.98326 21.1692 6.12357 20.8014 6.39892C20.4336 6.67428 20.1718 7.06789 20.06 7.51357L12.4388 37.9998H6C5.46957 37.9998 4.96086 38.2105 4.58579 38.5856C4.21071 38.9607 4 39.4694 4 39.9998C4 40.5303 4.21071 41.039 4.58579 41.414C4.96086 41.7891 5.46957 41.9998 6 41.9998H14C14.446 41.9997 14.8792 41.8506 15.2307 41.5761C15.5822 41.3016 15.8318 40.9175 15.94 40.4848L21.6075 17.8136L28.0275 56.3286C28.1015 56.777 28.326 57.1869 28.6641 57.4907C29.0022 57.7945 29.4337 57.9741 29.8875 57.9998C29.925 57.9998 29.9625 57.9998 30.0012 57.9998C30.4355 57.9995 30.8578 57.8578 31.2044 57.5962C31.551 57.3346 31.8031 56.9673 31.9225 56.5498L38.1475 34.7648L40.1025 40.6323C40.2353 41.0306 40.49 41.3769 40.8305 41.6224C41.1711 41.8678 41.5802 41.9998 42 41.9998H48.3438C48.7104 43.0369 49.3552 43.9533 50.2075 44.6487C51.0598 45.3441 52.0868 45.7918 53.1764 45.9429C54.266 46.094 55.3762 45.9427 56.3856 45.5054C57.395 45.0682 58.2647 44.3619 58.8998 43.4637C59.5348 42.5655 59.9107 41.51 59.9864 40.4126C60.0621 39.3152 59.8346 38.2181 59.3288 37.2412C58.8231 36.2644 58.0585 35.4453 57.1187 34.8737C56.1789 34.302 55.1 33.9997 54 33.9998Z" fill="#0891B2"/>
</svg>
