<svg width="64" height="64" viewBox="0 0 64 64" fill="none" xmlns="http://www.w3.org/2000/svg">
<path d="M8.26225 44.625C7.87619 44.6252 7.49833 44.5136 7.17427 44.3038C6.85021 44.094 6.5938 43.7948 6.436 43.4425C4.52659 39.1781 3.71468 34.5037 4.07426 29.8451C4.43384 25.1866 5.95348 20.6922 8.49471 16.7713C11.0359 12.8504 14.5179 9.62779 18.6234 7.39711C22.7289 5.16642 27.3274 3.99858 31.9998 4C32.5302 4 33.0389 4.21071 33.414 4.58579C33.789 4.96086 33.9998 5.46957 33.9998 6V32C33.9998 32.3862 33.8881 32.7642 33.678 33.0882C33.468 33.4123 33.1686 33.6686 32.816 33.8263L9.0785 44.445C8.82222 44.5621 8.544 44.6234 8.26225 44.625Z" fill="#2563EB"/>
<path d="M39.1987 8.52288C39.0537 8.49347 38.9039 8.49661 38.7603 8.53207C38.6166 8.56753 38.4826 8.63442 38.368 8.72793C38.2533 8.82144 38.1608 8.93923 38.0972 9.0728C38.0335 9.20638 38.0003 9.35242 37.9999 9.50038V32.0004C37.9989 33.1584 37.6634 34.2914 37.0336 35.2632C36.4037 36.235 35.5066 37.004 34.4499 37.4779L12.8912 47.1254C12.7576 47.185 12.6387 47.2733 12.5429 47.3839C12.4471 47.4945 12.3767 47.6249 12.3368 47.7656C12.2968 47.9064 12.2883 48.0543 12.3117 48.1987C12.3352 48.3432 12.39 48.4807 12.4724 48.6016C14.1223 51.0282 16.1703 53.1586 18.5299 54.9029C23.0006 58.2286 28.428 60.017 33.9999 60.0004C48.3362 60.0004 59.9999 48.3366 59.9999 34.0004C59.9999 21.4441 51.0524 10.9379 39.1987 8.52288Z" fill="#2563EB"/>
</svg>
