<svg width="24" height="24" viewBox="0 0 24 24" fill="none" xmlns="http://www.w3.org/2000/svg">
<path fill-rule="evenodd" clip-rule="evenodd" d="M12.7726 2.54775C12.2976 2.26273 11.7041 2.26273 11.2291 2.54774L2.20091 7.96465C1.2299 8.54725 1.2299 9.95452 2.20091 10.5371L4.00083 11.6171V18.0167C4.00083 18.4546 4.19382 18.9012 4.58461 19.1938C5.3458 19.7637 8.25205 21.7509 12.0008 21.7509C15.7496 21.7509 18.6559 19.7637 19.4171 19.1938C19.8078 18.9012 20.0008 18.4546 20.0008 18.0167V11.6171L21.8008 10.5371C22.7718 9.95452 22.7718 8.54725 21.8008 7.96465L12.7726 2.54775ZM3.94448 9.25089L12.0008 4.41708L20.0572 9.25089L16.6953 11.268L13.0821 8.68716C12.6327 8.36615 12.0081 8.47024 11.6871 8.91965C11.3661 9.36906 11.4702 9.99361 11.9196 10.3146L14.8252 12.3901L12.0008 14.0847L3.94448 9.25089ZM15.0008 14.6171L12.7726 15.954C12.2976 16.239 11.7041 16.239 11.2291 15.954L6.00083 12.8171V17.75C6.88349 18.367 9.18516 19.7509 12.0008 19.7509C14.8165 19.7509 17.1182 18.367 18.0008 17.75V12.8171L17.0008 13.4171V16.0009C17.0008 16.5532 16.5531 17.0009 16.0008 17.0009C15.4485 17.0009 15.0008 16.5532 15.0008 16.0009V14.6171Z" fill="#003B99"/>
</svg>
