<svg width="28" height="50" viewBox="0 0 28 50" fill="none" xmlns="http://www.w3.org/2000/svg">
<path fill-rule="evenodd" clip-rule="evenodd" d="M6.50801 1.6283C7.78929 1.09301 9.16409 0.817383 10.5527 0.817383C11.9413 0.817383 13.3161 1.09301 14.5974 1.6283C15.8787 2.16359 17.041 2.94788 18.0169 3.93571C18.9928 4.92354 19.7629 6.09526 20.2826 7.38295C20.8008 8.66691 21.0598 10.0407 21.0446 11.4251L21.0283 34.9981L21.0281 35.0132C20.999 36.853 20.2478 38.6076 18.9365 39.8983C17.6252 41.1891 15.8589 41.9125 14.0189 41.9125C12.179 41.9125 10.4127 41.1891 9.10143 39.8983C7.79013 38.6076 7.03888 36.853 7.00982 35.0132L7.00957 34.9975V17.0004C7.00957 15.8958 7.905 15.0004 9.00957 15.0004C10.1141 15.0004 11.0096 15.8958 11.0096 17.0004V34.9639C11.0256 35.7488 11.3477 36.4967 11.9074 37.0477C12.4705 37.6019 13.2289 37.9125 14.0189 37.9125C14.809 37.9125 15.5674 37.6019 16.1305 37.0477C16.6904 36.4965 17.0125 35.7484 17.0283 34.9633L17.0446 11.4001L17.0447 11.3886C17.0551 10.5295 16.8949 9.67678 16.5733 8.87999C16.2518 8.0832 15.7752 7.35817 15.1714 6.74692C14.5675 6.13568 13.8483 5.65038 13.0555 5.31916C12.2626 4.98794 11.4119 4.81738 10.5527 4.81738C9.69346 4.81738 8.84277 4.98794 8.04994 5.31916C7.25711 5.65038 6.53791 6.13568 5.93404 6.74692C5.33017 7.35817 4.85363 8.0832 4.53205 8.87999C4.21047 9.67678 4.05025 10.5295 4.06067 11.3886L4.06082 11.4008V35.1549L4.06061 35.1693C4.04155 36.4865 4.28451 37.7943 4.77537 39.0167C5.26624 40.2391 5.99521 41.3517 6.9199 42.2899C7.84459 43.2281 8.94656 43.9731 10.1617 44.4816C11.3769 44.9901 12.681 45.2519 13.9983 45.2519C15.3156 45.2519 16.6197 44.9901 17.8349 44.4816C19.0501 43.9731 20.1521 43.2281 21.0767 42.2899C22.0014 41.3517 22.7304 40.2391 23.2213 39.0167C23.7121 37.7943 23.9551 36.4865 23.936 35.1693L23.9358 35.1549V12.9679C23.9358 11.8633 24.8313 10.9679 25.9358 10.9679C27.0404 10.9679 27.9358 11.8633 27.9358 12.9679V35.1265C27.9605 36.9687 27.6197 38.7975 26.9332 40.5072C26.2448 42.2216 25.2224 43.782 23.9256 45.0978C22.6287 46.4135 21.0832 47.4584 19.379 48.1715C17.6748 48.8847 15.8458 49.2519 13.9983 49.2519C12.1509 49.2519 10.3219 48.8847 8.61764 48.1715C6.9134 47.4584 5.36793 46.4135 4.07108 45.0978C2.77423 43.782 1.75188 42.2216 1.06346 40.5072C0.376909 38.7975 0.0361469 36.9687 0.0608205 35.1265V11.4244C0.0457106 10.0402 0.304646 8.66669 0.822755 7.38295C1.34246 6.09526 2.11259 4.92354 3.08851 3.93571C4.06443 2.94788 5.22672 2.16359 6.50801 1.6283Z" fill="#059669"/>
</svg>
