<svg width="64" height="64" viewBox="0 0 64 64" fill="none" xmlns="http://www.w3.org/2000/svg">
<path d="M31.3175 16.1459L22.8425 7.6709C17.9896 9.51776 13.7946 12.7647 10.79 16.9996H30.965C31.0639 16.9995 31.1605 16.97 31.2426 16.915C31.3247 16.86 31.3886 16.7818 31.4263 16.6905C31.4641 16.5991 31.4739 16.4986 31.4545 16.4017C31.4351 16.3048 31.3875 16.2158 31.3175 16.1459Z" fill="#7C3AED"/>
<path d="M20.9652 21H8.45394C6.15236 25.9058 5.44635 31.4096 6.43519 36.7375L21.3177 21.8538C21.3876 21.7839 21.4353 21.6949 21.4546 21.598C21.474 21.501 21.4642 21.4005 21.4265 21.3092C21.3888 21.2178 21.3248 21.1397 21.2427 21.0847C21.1606 21.0296 21.064 21.0002 20.9652 21Z" fill="#7C3AED"/>
<path d="M42.9999 20.965V8.445C38.0924 6.15056 32.5904 5.44778 27.2637 6.435L42.1462 21.3175C42.216 21.3874 42.305 21.4351 42.402 21.4545C42.4989 21.4738 42.5994 21.464 42.6907 21.4263C42.7821 21.3886 42.8602 21.3246 42.9153 21.2425C42.9703 21.1604 42.9998 21.0638 42.9999 20.965Z" fill="#7C3AED"/>
<path d="M57.5653 27.2627L42.6828 42.1464C42.6128 42.2163 42.5652 42.3053 42.5458 42.4022C42.5265 42.4992 42.5363 42.5997 42.574 42.691C42.6117 42.7824 42.6757 42.8605 42.7578 42.9155C42.8399 42.9706 42.9364 43 43.0353 43.0002H55.5465C57.8481 38.0944 58.5541 32.5906 57.5653 27.2627Z" fill="#7C3AED"/>
<path d="M47.8537 31.3179L56.3325 22.8404C54.4906 17.9802 51.2413 13.7796 47 10.7754V30.9654C47.0002 31.0642 47.0296 31.1608 47.0847 31.2429C47.1397 31.325 47.2178 31.389 47.3092 31.4267C47.4005 31.4644 47.501 31.4742 47.598 31.4548C47.6949 31.4355 47.7839 31.3878 47.8537 31.3179Z" fill="#7C3AED"/>
<path d="M27.7095 42.7209C27.8957 42.8998 28.1439 42.9996 28.402 42.9997H35.8595C35.9922 42.9996 36.1235 42.9732 36.2458 42.9219C36.3681 42.8706 36.479 42.7955 36.572 42.7009L42.7195 36.4509C42.904 36.2637 43.0072 36.0113 43.007 35.7484L42.9995 28.1472C42.9995 28.0148 42.9732 27.8838 42.9221 27.7617C42.871 27.6397 42.7962 27.5289 42.702 27.4359L36.452 21.2797C36.2644 21.095 36.0116 20.9916 35.7483 20.9922L28.1433 20.9997C28.0109 20.9997 27.8799 21.0261 27.7578 21.0771C27.6357 21.1282 27.525 21.203 27.432 21.2972L21.2758 27.5472C21.091 27.7348 20.9877 27.9877 20.9883 28.2509L20.9958 35.8484C20.9958 35.9829 21.0229 36.1159 21.0756 36.2396C21.1282 36.3633 21.2052 36.4752 21.302 36.5684L27.7095 42.7209Z" fill="#7C3AED"/>
<path d="M32.6828 47.8537L41.1578 56.3288C46.0108 54.4819 50.2057 51.235 53.2103 47H33.0353C32.9364 47.0002 32.8399 47.0296 32.7578 47.0847C32.6757 47.1397 32.6117 47.2178 32.574 47.3092C32.5363 47.4005 32.5265 47.501 32.5458 47.598C32.5652 47.6949 32.6128 47.7839 32.6828 47.8537Z" fill="#7C3AED"/>
<path d="M21 43.0353V55.5553C25.9075 57.8497 31.4096 58.5525 36.7363 57.5653L21.8538 42.6828C21.7839 42.6128 21.6949 42.5652 21.598 42.5458C21.501 42.5265 21.4005 42.5363 21.3092 42.574C21.2178 42.6117 21.1397 42.6757 21.0847 42.7578C21.0296 42.8399 21.0002 42.9364 21 43.0353Z" fill="#7C3AED"/>
<path d="M16.1467 32.6828L7.66797 41.1615C9.51025 46.0212 12.7595 50.2213 17.0005 53.2253V33.0353C17.0003 32.9364 16.9708 32.8399 16.9158 32.7578C16.8608 32.6757 16.7826 32.6117 16.6913 32.574C16.5999 32.5363 16.4994 32.5265 16.4025 32.5458C16.3056 32.5652 16.2166 32.6128 16.1467 32.6828Z" fill="#7C3AED"/>
</svg>
